<?xml version="1.0" encoding="utf-8"?>
<!DOCTYPE svg PUBLIC "-//W3C//DTD SVG 1.1//EN" "http://www.w3.org/Graphics/SVG/1.1/DTD/svg11.dtd">
<svg version="1.1" id="Calque_1" xmlns="http://www.w3.org/2000/svg" xmlns:xlink="http://www.w3.org/1999/xlink" x="0px" y="0px"
	 viewBox="0 0 595.3 841.9" style="enable-background:new 0 0 595.3 841.9;" xml:space="preserve">
<style type="text/css">
	.st0{fill:#5E0000;}
</style>
<g id="skull">
	<path class="st0" d="M119.5,449.6c3.4,11.1,7,22.7,8.7,34.3c0.7,4.7,3.5,39.2,5.1,58.1c0.6,7.2,6.1,13.1,13.3,14.2l25.1,3.8
		c3.6,0.5,6.5,3.3,7.2,6.9l3.3,16.9c1.4,7.4,7.9,12.7,15.4,12.7l194.8-0.1c7.4,0,13.7-5.1,15.3-12.3l3.8-17.4c0.8-3.4,3.7-6,7.2-6.5
		l30.6-4.4c7.3-1.1,12.9-7.1,13.4-14.6c1.2-19.5,3.4-54.9,4-59.7c1.6-11.5,5-22.8,8.3-33.8c4.6-15.4,9.3-31.3,9.3-47.9
		c0-105.7-84-191.7-187.3-191.7s-187.3,86.1-187.3,191.8C109.5,417,114.6,433.6,119.5,449.6z M321.3,439.9
		c1.2-30,28.1-37.6,58.2-36.4c30,1.2,51.8,10.7,50.6,40.7c-1.2,30-26.5,53.4-56.5,52.2C343.5,495.2,320.1,469.9,321.3,439.9z
		 M303.6,498.8l19.5,28.9c1.7,2.6,2,5.8,0.6,8.6l-2.8,5.8c-1.4,3-4.5,4.9-7.8,4.9h-33.4c-3.3,0-6.4-1.9-7.8-4.9l-2.8-5.8
		c-1.3-2.8-1.1-6.1,0.6-8.6l19.5-28.9C292.7,493.7,300.2,493.7,303.6,498.8z M214.3,403.5c30-1.2,57,6.4,58.2,36.4
		c1.2,30-22.2,55.3-52.2,56.5c-30,1.2-55.3-22.2-56.5-52.2C162.5,414.1,184.2,404.7,214.3,403.5z"/>
	<path class="st0" d="M541.1,180.3c2.3-14.3-2-29.6-13.1-40.6c-17.8-17.7-46.9-18.1-65.1-0.7c-19,18.1-19.3,48.3-0.8,66.8l-17,17
		c-6.8,6.8-6.8,17.8,0,24.6l29,29c6.8,6.8,17.8,6.8,24.6,0l17-17c18.5,18.5,48.6,18.2,66.8-0.8c17.4-18.2,17-47.3-0.7-65.1
		C570.7,182.3,555.5,178,541.1,180.3z"/>
	<path class="st0" d="M79.6,259.4l17,17c6.8,6.8,17.8,6.8,24.6,0l29-29c6.8-6.8,6.8-17.8,0-24.6l-17-17
		c18.5-18.5,18.2-48.6-0.8-66.8c-18.2-17.4-47.3-17-65.1,0.7c-11.1,11-15.5,26.3-13.1,40.6c-14.3-2.3-29.6,2-40.6,13.1
		c-17.7,17.8-18.1,46.9-0.7,65.1C31,277.6,61.1,277.8,79.6,259.4z"/>
	<path class="st0" d="M582.5,583.3c-18.1-19-48.3-19.3-66.8-0.8l-17-17c-6.8-6.8-17.8-6.8-24.6,0l-29,29c-6.8,6.8-6.8,17.8,0,24.6
		l17,17c-18.5,18.5-18.2,48.6,0.8,66.8c18.2,17.4,47.3,17,65.1-0.7c11.1-11,15.5-26.3,13.1-40.6c14.3,2.3,29.6-2,40.6-13.1
		C599.5,630.6,599.8,601.5,582.5,583.3z"/>
	<path class="st0" d="M54.1,661.6c-2.3,14.3,2,29.6,13.1,40.6c17.8,17.7,46.9,18.1,65.1,0.7c19-18.1,19.3-48.3,0.8-66.8l17-17
		c6.8-6.8,6.8-17.8,0-24.6l-29-29c-6.8-6.8-17.8-6.8-24.6,0l-17,17c-18.5-18.5-48.6-18.2-66.8,0.8c-17.4,18.2-17,47.3,0.7,65.1
		C24.6,659.5,39.8,663.9,54.1,661.6z"/>
</g>
</svg>
