<?xml version="1.0" encoding="utf-8"?>
<!DOCTYPE svg PUBLIC "-//W3C//DTD SVG 1.1//EN" "http://www.w3.org/Graphics/SVG/1.1/DTD/svg11.dtd">
<svg version="1.1" id="Calque_1"
	 xmlns="http://www.w3.org/2000/svg" xmlns:xlink="http://www.w3.org/1999/xlink" x="0px" y="0px" viewBox="0 0 595.3 841.9"
	 style="enable-background:new 0 0 595.3 841.9;" xml:space="preserve">
<style type="text/css">
	.st0{fill:#631D07;}
	.st1{font-family:"NodestoCapsCondensedBold";font-size:70px;}
</style>
<text transform="matrix(1 0 0 1 119.7192 518.5707)" class="st0 st1">Aventures rapides</text>
<g transform="matrix(0.535677,0,0,0.535677,1137.87,1407.72)">
	<path class="st0" d="M-1509.8-1619.8c-0.8-0.8-1.9-1.1-3-1l-34.7,5c-0.9,0.1-1.6,0.6-2.2,1.2l-46.1,55.6c-3.8-1.7-8.5-1-11.7,2.2
		l-5,5c-1.4,1.4-1.4,3.6,0,5l7.4,7.4l-11.4,11.4h-1.5c-5.8,0-10.5,4.7-10.5,10.5v5.8c0,5.8,4.7,10.5,10.5,10.5h5.8
		c5.8,0,10.5-4.7,10.5-10.5v-1.5l11.4-11.4l7.4,7.4c1.4,1.4,3.6,1.4,5,0l5-5c3.2-3.2,3.9-7.9,2.2-11.7l55.6-46.1
		c0.7-0.6,1.1-1.3,1.2-2.2l5-34.7C-1508.7-1617.9-1509-1619-1509.8-1619.8z M-1608.5-1511.8c0,1.9-1.6,3.5-3.5,3.5h-5.8
		c-1.9,0-3.5-1.6-3.5-3.5v-5.8c0-1.9,1.6-3.5,3.5-3.5h1.5l7.9,7.9V-1511.8z M-1605-1519.7l-5-5l9.9-9.9l5,5L-1605-1519.7z
		 M-1577.8-1527.1l-2.5,2.5l-24.8-24.8l2.5-2.5c1.4-1.4,3.6-1.4,5,0l19.8,19.8C-1576.4-1530.7-1576.4-1528.5-1577.8-1527.1z
		 M-1520.5-1584.5l-54.6,45.2l-5.2-5.2l40.7-40.7c1.4-1.4,1.4-3.6,0-5c-1.4-1.4-3.6-1.4-5,0l-40.7,40.7l-5.2-5.2l45.2-54.6l28.7-4.1
		L-1520.5-1584.5z"/>
</g>
</svg>
