<?xml version="1.0" encoding="utf-8"?>
<svg version="1.1" id="Calque_1" xmlns="http://www.w3.org/2000/svg" xmlns:xlink="http://www.w3.org/1999/xlink" x="0px" y="0px"
	 viewBox="0 0 64.1 64.1" style="enable-background:new 0 0 64.1 64.1;" xml:space="preserve">
<style type="text/css">
	.st0{fill:#631D07;}
</style>
<g transform="matrix(0.535677,0,0,0.535677,1137.87,1407.72)">
	<path class="st0" d="M-2005.5-2626.9c-0.8-0.8-1.9-1.1-3-1l-34.7,5c-0.9,0.1-1.6,0.6-2.2,1.2l-46.1,55.6c-3.8-1.7-8.5-1-11.7,2.2
		l-5,5c-1.4,1.4-1.4,3.6,0,5l7.4,7.4l-11.4,11.4h-1.5c-5.8,0-10.5,4.7-10.5,10.5v5.8c0,5.8,4.7,10.5,10.5,10.5h5.8
		c5.8,0,10.5-4.7,10.5-10.5v-1.5l11.4-11.4l7.4,7.4c1.4,1.4,3.6,1.4,5,0l5-5c3.2-3.2,3.9-7.9,2.2-11.7l55.6-46.1
		c0.7-0.6,1.1-1.3,1.2-2.2l5-34.7C-2004.4-2625-2004.7-2626.1-2005.5-2626.9z M-2104.2-2518.9c0,1.9-1.6,3.5-3.5,3.5h-5.8
		c-1.9,0-3.5-1.6-3.5-3.5v-5.8c0-1.9,1.6-3.5,3.5-3.5h1.5l7.9,7.9L-2104.2-2518.9L-2104.2-2518.9z M-2100.7-2526.8l-5-5l9.9-9.9l5,5
		L-2100.7-2526.8z M-2073.5-2534.2l-2.5,2.5l-24.8-24.8l2.5-2.5c1.4-1.4,3.6-1.4,5,0l19.8,19.8
		C-2072.1-2537.8-2072.1-2535.6-2073.5-2534.2z M-2016.2-2591.6l-54.6,45.2l-5.2-5.2l40.7-40.7c1.4-1.4,1.4-3.6,0-5
		c-1.4-1.4-3.6-1.4-5,0l-40.7,40.7l-5.2-5.2l45.2-54.6l28.7-4.1L-2016.2-2591.6z"/>
</g>
</svg>
