<?xml version="1.0" encoding="utf-8"?>
<!DOCTYPE svg PUBLIC "-//W3C//DTD SVG 1.1//EN" "http://www.w3.org/Graphics/SVG/1.1/DTD/svg11.dtd">
<svg version="1.1" id="Calque_1"
	 xmlns="http://www.w3.org/2000/svg" xmlns:xlink="http://www.w3.org/1999/xlink" x="0px" y="0px" viewBox="0 0 595.3 841.9"
	 style="enable-background:new 0 0 595.3 841.9;" xml:space="preserve">
<style type="text/css">
	.st0{fill:#631D07;}
	.st1{font-family:'Arial-ItalicMT';}
	.st2{font-size:70.0325px;}
	.st3{font-family:'NodestoCapsCondensedBold';}
</style>
<text transform="matrix(1 0 0 1 290.4336 519.6644)" class="st0 st1 st2">-</text>
<text transform="matrix(1 0 0 1 338.126 519.6644)" class="st0 st3 st2">Créatures</text>
<text transform="matrix(1 0 0 1 59.1245 519.6644)" class="st0 st3 st2">Annexe C</text>
<g transform="matrix(0.143572,0,0,0.143572,1121.86,1409.93)">
	<g transform="matrix(4.16667,0,0,4.16667,-0.000648043,-126.921)">
		<path class="st0" d="M-1323.5-1395.3h-3l-1-1c-1.7-1.7-4.1-2.7-6.5-2.7h-25c-1,0-1.8,0.8-1.8,1.8s0.8,1.8,1.8,1.8h4.7l2.8,4h-1.9
			c-1,0-1.8,0.8-1.8,1.8s0.8,1.8,1.8,1.8h4.3l2.8,4h-1.5c-1,0-1.8,0.8-1.8,1.8c0,1,0.8,1.8,1.8,1.8h4c1.2,1.3,2.6,2.3,4.2,3
			c-0.9,1.5-1,3.2-0.4,4.8l4.8,12c2.3,5.7,0.4,12.1-4.6,15.7l-0.8,0.5v-4.1c0-1-0.8-1.8-1.8-1.8s-1.8,0.8-1.8,1.8v12.6l-2.3-2.3
			c-1.1-1.1-1.7-2.5-1.7-4.1v-6.3c0-1-0.8-1.8-1.8-1.8s-1.8,0.8-1.8,1.8v5.7h-3.6c-2.4,0-4.7-0.5-6.9-1.5l-12.3-5.5
			c0.4-0.8,0-1.8-0.8-2.2c-0.9-0.4-1.9-0.1-2.3,0.8l-3.9,7.8c-1,1.9-2.5,3.5-4.3,4.7l-2.5,1.5l4.6-18.4c0.2-0.9-0.3-1.9-1.3-2.1
			c-0.9-0.2-1.9,0.3-2.1,1.3l-0.6,2.4c-2.8,0.1-5.4,1.2-7.4,3.2c-2.1,2.1-3.3,4.9-3.3,7.9c0,8.3-6.8,15.1-15.1,15.1
			c-5,0-9.4-2.4-12.2-6.2c2.2,1.4,4.7,2.2,7.5,2.2c7.7,0,13.9-6.2,13.9-13.9c0-4.9,2.1-9.6,5.8-12.9c3.7-3.3,8.6-4.8,13.5-4.1
			l21.7,2.8c0.7,0.1,1.4-0.3,1.8-0.9c0.3-0.6,0.2-1.4-0.2-2c-7.7-8.6-17.1-10.7-23.5-10.9c-1.9-0.1-3.6,0-5.2,0.2l21.9-18v11.3
			c0,4,1.9,7.8,5.1,10.3l19.9,15.3c0.8,0.6,1.9,0.4,2.5-0.3c0.6-0.8,0.4-1.9-0.3-2.5l-4.9-3.8v-13.5c0-1-0.8-1.8-1.8-1.8
			s-1.8,0.8-1.8,1.8v10.8l-11.5-8.9c-2.3-1.8-3.7-4.6-3.7-7.5v-15.1c0-0.7-0.5-1.4-1.2-1.7l-69.2-24.3c-0.8-0.3-1.8,0.1-2.2,0.9
			c-0.4,0.8-0.1,1.8,0.6,2.2c0.2,0.1,19.7,12.9,22,26.7l-0.6,0.1c-1,0.1-1.6,1-1.5,1.9c0.1,0.9,0.9,1.6,1.7,1.6c0.1,0,0.1,0,0.2,0
			l2.5-0.3c12.6,3.9,13.9,14.2,14,17l-1,0.8c-0.7,0.6-0.9,1.7-0.2,2.5c0.3,0.4,0.8,0.6,1.4,0.6c0.4,0,0.8-0.1,1.1-0.4l1.5-1.2
			c1.3-0.4,5.4-1.5,10.7-1.2c6.5,0.3,12.3,2.3,17.1,6.2l-16.3-2.1c-5.9-0.8-11.8,1-16.3,5c-4.5,3.9-7,9.6-7,15.5
			c0,5.7-4.7,10.4-10.4,10.4c-5.7,0-10.4-4.7-10.4-10.4v-9.6l5.1-5.1c0.5-0.5,0.6-1.2,0.4-1.9l-5.6-15c-0.3-0.7-0.9-1.1-1.6-1.1
			s-1.4,0.5-1.6,1.1l-5.6,15c-0.2,0.6-0.1,1.4,0.4,1.9l5.1,5.1v12.4c0,10.3,8.3,18.6,18.6,18.6s18.6-8.3,18.6-18.6
			c0-2,0.8-3.9,2.2-5.4c1.1-1.1,2.5-1.8,4-2.1l-4.1,16.4c-0.1,0.4-0.1,0.8,0.1,1.2l4.3,8.7h-1.8c-1,0-1.8,0.8-1.8,1.8
			c0,1,0.8,1.8,1.8,1.8h5.6c0.4,0,0.9-0.2,1.2-0.5c0.7-0.6,1.9-1.4,3.5-1.4c1.6,0,2.8,0.8,3.5,1.4c0.3,0.3,0.8,0.5,1.2,0.5
			c0.5,0,0.9-0.2,1.3-0.6c0.7-0.7,0.6-1.8-0.1-2.5c-1.6-1.5-3.7-2.3-5.9-2.3c-1.7,0-3.3,0.5-4.7,1.5l-4.2-8.4l4.7-2.8
			c2.4-1.5,4.4-3.6,5.6-6.1l2.4-4.8l12.4,5.5c2.6,1.2,5.4,1.8,8.3,1.8h4.1c0.4,1.3,1.2,2.5,2.2,3.6l3.1,3.1c1.1,1.1,1.7,2.5,1.7,4.1
			v4.5h-2.9c-1,0-1.8,0.8-1.8,1.8s0.8,1.8,1.8,1.8h5.6c0.4,0,0.9-0.2,1.2-0.5c0.7-0.6,1.9-1.4,3.5-1.4s2.8,0.8,3.5,1.4
			c0.3,0.3,0.8,0.5,1.2,0.5c0.5,0,0.9-0.2,1.3-0.6c0.7-0.7,0.6-1.8-0.1-2.5c-1.6-1.5-3.7-2.3-5.9-2.3c-1.3,0-2.7,0.3-3.9,0.9v-15.1
			l2.8-2c6.3-4.5,8.7-12.6,5.8-19.8l-4.8-12c-0.2-0.6-0.2-1.3,0.2-1.9c0.4-0.6,1-0.9,1.6-0.9h11.3c1,0,1.8-0.8,1.8-1.8
			s-0.8-1.8-1.8-1.8h-9.5v-2c0-1.1,0.9-2,2-2h7.6v0.1c0,1,0.8,1.8,1.8,1.8s1.8-0.8,1.8-1.8v-0.1h0.1c1,0,1.8-0.8,1.8-1.8v-3.7
			C-1318-1392.9-1320.5-1395.3-1323.5-1395.3z M-1397-1379.5c-1.4-3.1-4-6.9-8.7-9.7l16.9-1.9c1-0.1,1.6-1,1.5-1.9
			c-0.1-1-1-1.7-1.9-1.5l-22.1,2.5c-1.4-8.9-8.7-17.1-14.9-22.5l51.9,18.2l-7.4,0.9c-1,0.1-1.6,1-1.5,1.9c0.1,0.9,0.9,1.6,1.7,1.6
			c0.1,0,0.1,0,0.2,0l9.1-1l-23,19C-1395.6-1375.6-1396.1-1377.5-1397-1379.5z M-1433.8-1362.2l3.6-9.5l3.6,9.5l-3.6,3.6
			L-1433.8-1362.2z M-1321.5-1387.8h-9.5c-3,0-5.5,2.5-5.5,5.5v1.9c-2.1-0.3-4-1.4-5.2-3.2l-3.1-4.5h2.6c1,0,1.8-0.8,1.8-1.8
			s-0.8-1.8-1.8-1.8h-5.1l-2.8-4h16c1.5,0,3,0.6,4.1,1.7l1.6,1.6c0.3,0.3,0.8,0.5,1.2,0.5h3.7c1.1,0,2,0.9,2,2V-1387.8z"/>
	</g>
	<g transform="matrix(4.16667,0,0,4.16667,-0.000648043,-126.921)">
		<path class="st0" d="M-1332.9-1393.5L-1332.9-1393.5c-1,0-1.8,0.8-1.8,1.8s0.8,1.8,1.8,1.8s1.8-0.8,1.8-1.8
			S-1331.9-1393.5-1332.9-1393.5z"/>
	</g>
</g>
</svg>
