<?xml version="1.0" encoding="utf-8"?>
<!DOCTYPE svg PUBLIC "-//W3C//DTD SVG 1.1//EN" "http://www.w3.org/Graphics/SVG/1.1/DTD/svg11.dtd">
<svg version="1.1" id="Calque_1"
	 xmlns="http://www.w3.org/2000/svg" xmlns:xlink="http://www.w3.org/1999/xlink" x="0px" y="0px" viewBox="0 0 595.3 841.9"
	 style="enable-background:new 0 0 595.3 841.9;" xml:space="preserve">
<style type="text/css">
	.st0{fill:#631D07;}
	.st1{font-family:'NodestoCapsCondensedBold';}
	.st2{font-size:70.0325px;}
</style>
<g>
	<text transform="matrix(1 0 0 1 194.607 448.0394)" class="st0 st1 st2">Annexe B</text>
	<text transform="matrix(1 0 0 1 35.92 525.6635)" class="st0 st1 st2">Affichettes des magasins</text>
</g>
<g transform="matrix(0.468455,0,0,0.468455,1149.95,1430.05)">
	<path class="st0" d="M-1765.9-1783.5h-1.9v-44.8h1.9c0.6,0,1.2-0.3,1.6-0.8c0.3-0.5,0.4-1.2,0.2-1.8l-9.3-22.4
		c-0.3-0.7-1-1.2-1.7-1.2h-24.3v-3.7h5.6c3.1,0,5.6-2.5,5.6-5.6v-18.7c0-3.1-2.5-5.6-5.6-5.6h-56c-3.1,0-5.6,2.5-5.6,5.6v18.7
		c0,3.1,2.5,5.6,5.6,5.6h5.6v3.7h-24.3c-0.8,0-1.4,0.5-1.7,1.1l-9.3,22.4c-0.2,0.6-0.2,1.2,0.2,1.8s0.9,0.8,1.6,0.8h1.9v44.8h-1.9
		c-1,0-1.9,0.8-1.9,1.9v7.5c0,1,0.8,1.9,1.9,1.9h112.1c1,0,1.9-0.8,1.9-1.9v-7.5C-1764.1-1782.7-1764.9-1783.5-1765.9-1783.5z
		 M-1851.8-1863.8v-18.7c0-1,0.8-1.9,1.9-1.9h56c1,0,1.9,0.8,1.9,1.9v18.7c0,1-0.8,1.9-1.9,1.9h-56
		C-1851-1862-1851.8-1862.8-1851.8-1863.8z M-1840.6-1858.2h37.4v3.7h-37.4V-1858.2z M-1867.4-1850.8h90.9l4.7,11.2h-100.2
		L-1867.4-1850.8z M-1873.6-1835.8h103.3l1.6,3.7h-106.4L-1873.6-1835.8z M-1872.4-1828.3h100.8v44.8h-69.1v-29.9
		c1,0,1.9-0.8,1.9-1.9v-7.5c0-1-0.8-1.9-1.9-1.9h-26.1c-1,0-1.9,0.8-1.9,1.9v7.5c0,1,0.8,1.9,1.9,1.9v29.9h-5.6V-1828.3z
		 M-1842.5-1817.1h-22.4v-3.7h22.4V-1817.1z M-1844.4-1813.4v29.9h-18.7v-29.9H-1844.4z M-1767.8-1776.1h-108.3v-3.7h108.3V-1776.1z
		"/>
	<path class="st0" d="M-1840.6-1882.5h-3.7c-2.1,0-3.7,1.7-3.7,3.7v3.7c0,2.1,1.7,3.7,3.7,3.7h3.7v3.7h-3.7v-1.9h-3.7v1.9
		c0,2.1,1.7,3.7,3.7,3.7h3.7c2.1,0,3.7-1.7,3.7-3.7v-3.7c0-2.1-1.7-3.7-3.7-3.7h-3.7v-3.7h3.7v1.9h3.7v-1.9
		C-1836.9-1880.8-1838.6-1882.5-1840.6-1882.5z"/>
	<path class="st0" d="M-1827.6-1875h-3.7v-7.5h-3.7v18.7h3.7v-7.5h3.7v7.5h3.7v-18.7h-3.7V-1875z"/>
	<path class="st0" d="M-1814.5-1882.5h-3.7c-2.1,0-3.7,1.7-3.7,3.7v11.2c0,2.1,1.7,3.7,3.7,3.7h3.7c2.1,0,3.7-1.7,3.7-3.7v-11.2
		C-1810.8-1880.8-1812.4-1882.5-1814.5-1882.5z M-1818.2-1867.6v-11.2h3.7l0,11.2H-1818.2z"/>
	<path class="st0" d="M-1801.4-1882.5h-5.6c-1,0-1.9,0.8-1.9,1.9v16.8h3.7v-7.5h3.7c3.1,0,5.6-2.5,5.6-5.6
		C-1795.8-1880-1798.3-1882.5-1801.4-1882.5z M-1801.4-1875h-3.7v-3.7h3.7c1,0,1.9,0.8,1.9,1.9
		C-1799.6-1875.9-1800.4-1875-1801.4-1875z"/>
	<path class="st0" d="M-1833.2-1787.3h56c1,0,1.9-0.8,1.9-1.9v-7.5c0-1-0.8-1.9-1.9-1.9h-1.9v-14.9h1.9c1,0,1.9-0.8,1.9-1.9v-7.5
		c0-1-0.8-1.9-1.9-1.9h-56c-1,0-1.9,0.8-1.9,1.9v7.5c0,1,0.8,1.9,1.9,1.9h1.9v14.9h-1.9c-1,0-1.9,0.8-1.9,1.9v7.5
		C-1835-1788.1-1834.2-1787.3-1833.2-1787.3z M-1831.3-1820.9h52.3v3.7h-52.3V-1820.9z M-1827.6-1813.4h44.8v14.9h-44.8V-1813.4z
		 M-1831.3-1794.7h52.3v3.7h-52.3V-1794.7z"/>
	<rect x="-1851.8" y="-1802.2" class="st0" width="3.7" height="3.7"/>
</g>
</svg>
