<?xml version="1.0" encoding="utf-8"?>
<!-- Generator: Adobe Illustrator 27.5.0, SVG Export Plug-In . SVG Version: 6.00 Build 0)  -->
<svg version="1.1" id="Calque_1" xmlns="http://www.w3.org/2000/svg" xmlns:xlink="http://www.w3.org/1999/xlink" x="0px" y="0px"
	 viewBox="0 0 54.3 54.2" style="enable-background:new 0 0 54.3 54.2;" xml:space="preserve">
<style type="text/css">
	.st0{fill:#631D07;}
</style>
<g transform="matrix(0.468455,0,0,0.468455,1149.95,1430.05)">
	<path class="st0" d="M-2341-2948.1h-1.9v-44.8h1.9c0.6,0,1.2-0.3,1.6-0.8c0.3-0.5,0.4-1.2,0.2-1.8l-9.3-22.4
		c-0.3-0.7-1-1.2-1.7-1.2h-24.3v-3.7h5.6c3.1,0,5.6-2.5,5.6-5.6v-18.7c0-3.1-2.5-5.6-5.6-5.6h-56c-3.1,0-5.6,2.5-5.6,5.6v18.7
		c0,3.1,2.5,5.6,5.6,5.6h5.6v3.7h-24.3c-0.8,0-1.4,0.5-1.7,1.1l-9.3,22.4c-0.2,0.6-0.2,1.2,0.2,1.8s0.9,0.8,1.6,0.8h1.9v44.8h-1.9
		c-1,0-1.9,0.8-1.9,1.9v7.5c0,1,0.8,1.9,1.9,1.9h112.1c1,0,1.9-0.8,1.9-1.9v-7.5C-2339.2-2947.3-2340-2948.1-2341-2948.1z
		 M-2426.9-3028.4v-18.7c0-1,0.8-1.9,1.9-1.9h56c1,0,1.9,0.8,1.9,1.9v18.7c0,1-0.8,1.9-1.9,1.9h-56
		C-2426.1-3026.6-2426.9-3027.4-2426.9-3028.4z M-2415.7-3022.8h37.4v3.7h-37.4V-3022.8z M-2442.5-3015.4h90.9l4.7,11.2h-100.2
		L-2442.5-3015.4z M-2448.7-3000.4h103.3l1.6,3.7h-106.4L-2448.7-3000.4z M-2447.5-2992.9h100.8v44.8h-69.1v-29.9
		c1,0,1.9-0.8,1.9-1.9v-7.5c0-1-0.8-1.9-1.9-1.9h-26.1c-1,0-1.9,0.8-1.9,1.9v7.5c0,1,0.8,1.9,1.9,1.9v29.9h-5.6V-2992.9
		L-2447.5-2992.9z M-2417.6-2981.7h-22.4v-3.7h22.4V-2981.7z M-2419.5-2978v29.9h-18.7v-29.9H-2419.5z M-2342.9-2940.7h-108.3v-3.7
		h108.3V-2940.7z"/>
	<path class="st0" d="M-2415.7-3047.1h-3.7c-2.1,0-3.7,1.7-3.7,3.7v3.7c0,2.1,1.7,3.7,3.7,3.7h3.7v3.7h-3.7v-1.9h-3.7v1.9
		c0,2.1,1.7,3.7,3.7,3.7h3.7c2.1,0,3.7-1.7,3.7-3.7v-3.7c0-2.1-1.7-3.7-3.7-3.7h-3.7v-3.7h3.7v1.9h3.7v-1.9
		C-2412-3045.4-2413.7-3047.1-2415.7-3047.1z"/>
	<path class="st0" d="M-2402.7-3039.6h-3.7v-7.5h-3.7v18.7h3.7v-7.5h3.7v7.5h3.7v-18.7h-3.7V-3039.6z"/>
	<path class="st0" d="M-2389.6-3047.1h-3.7c-2.1,0-3.7,1.7-3.7,3.7v11.2c0,2.1,1.7,3.7,3.7,3.7h3.7c2.1,0,3.7-1.7,3.7-3.7v-11.2
		C-2385.9-3045.4-2387.5-3047.1-2389.6-3047.1z M-2393.3-3032.2v-11.2h3.7v11.2H-2393.3z"/>
	<path class="st0" d="M-2376.5-3047.1h-5.6c-1,0-1.9,0.8-1.9,1.9v16.8h3.7v-7.5h3.7c3.1,0,5.6-2.5,5.6-5.6
		C-2370.9-3044.6-2373.4-3047.1-2376.5-3047.1z M-2376.5-3039.6h-3.7v-3.7h3.7c1,0,1.9,0.8,1.9,1.9
		C-2374.7-3040.5-2375.5-3039.6-2376.5-3039.6z"/>
	<path class="st0" d="M-2408.3-2951.9h56c1,0,1.9-0.8,1.9-1.9v-7.5c0-1-0.8-1.9-1.9-1.9h-1.9v-14.9h1.9c1,0,1.9-0.8,1.9-1.9v-7.5
		c0-1-0.8-1.9-1.9-1.9h-56c-1,0-1.9,0.8-1.9,1.9v7.5c0,1,0.8,1.9,1.9,1.9h1.9v14.9h-1.9c-1,0-1.9,0.8-1.9,1.9v7.5
		C-2410.1-2952.7-2409.3-2951.9-2408.3-2951.9z M-2406.4-2985.5h52.3v3.7h-52.3V-2985.5z M-2402.7-2978h44.8v14.9h-44.8V-2978z
		 M-2406.4-2959.3h52.3v3.7h-52.3V-2959.3z"/>
	<rect x="-2426.9" y="-2966.8" class="st0" width="3.7" height="3.7"/>
</g>
</svg>
