<?xml version="1.0" encoding="utf-8"?>
<!-- Generator: Adobe Illustrator 27.5.0, SVG Export Plug-In . SVG Version: 6.00 Build 0)  -->
<svg version="1.1" id="Calque_1" xmlns="http://www.w3.org/2000/svg" xmlns:xlink="http://www.w3.org/1999/xlink" x="0px" y="0px"
	 viewBox="0 0 56.6 51.9" style="enable-background:new 0 0 56.6 51.9;" xml:space="preserve">
<style type="text/css">
	.st0{fill:#631D07;}
</style>
<g transform="matrix(0.113721,0,0,0.113721,1163.1,1525.03)">
	<path class="st0" d="M-10124.8-13148.5c-3.6,0-6.9-1.7-9.1-4.5c-2-2.7-5.1-4.2-8.4-4.2l0,0c-3.3,0-6.4,1.5-8.4,4.2
		c-2.2,2.9-5.5,4.5-9.1,4.5c-3.6,0-6.9-1.7-9.1-4.5c-2-2.7-5.1-4.2-8.4-4.2l0,0c-3.3,0-6.4,1.5-8.4,4.2c-2.2,2.9-5.5,4.5-9.1,4.5
		c-4,0-7.3,3.3-7.3,7.3s3.3,7.3,7.3,7.3c6.6,0,12.8-2.4,17.5-6.8c4.8,4.3,10.9,6.8,17.5,6.8c6.6,0,12.8-2.4,17.5-6.8
		c4.8,4.3,10.9,6.8,17.5,6.8c4,0,7.3-3.3,7.3-7.3C-10117.6-13145.2-10120.8-13148.5-10124.8-13148.5z"/>
	<path class="st0" d="M-10004-13100.4c-3.6,0-6.9-1.7-9.1-4.5c-2-2.7-5.1-4.2-8.4-4.2s-6.4,1.5-8.4,4.2c-2.2,2.9-5.5,4.5-9.1,4.5
		c-3.6,0-6.9-1.7-9.1-4.5c-2-2.7-5.1-4.2-8.4-4.2s-6.4,1.5-8.4,4.2c-2.2,2.9-5.5,4.5-9.1,4.5c-4,0-7.3,3.3-7.3,7.3s3.3,7.3,7.3,7.3
		c6.6,0,12.8-2.4,17.5-6.8c4.8,4.3,10.9,6.8,17.5,6.8c6.6,0,12.8-2.4,17.5-6.8c4.8,4.3,10.9,6.8,17.5,6.8c4,0,7.3-3.3,7.3-7.3
		S-10000-13100.4-10004-13100.4z"/>
	<path class="st0" d="M-9953.2-13037.7c6.6,0,12.8-2.4,17.5-6.8c4.8,4.3,10.9,6.8,17.5,6.8c6.6,0,12.8-2.4,17.5-6.8
		c4.8,4.3,10.9,6.8,17.5,6.8c4,0,7.3-3.3,7.3-7.3s-3.3-7.3-7.3-7.3c-3.6,0-6.9-1.7-9.1-4.5c-2-2.7-5.1-4.2-8.4-4.2s-6.4,1.5-8.4,4.2
		c-2.2,2.9-5.5,4.5-9.1,4.5c-3.6,0-6.9-1.7-9.1-4.5c-2-2.7-5.1-4.2-8.4-4.2l0,0c-3.3,0-6.4,1.5-8.4,4.2c-2.2,2.9-5.5,4.5-9.1,4.5
		c-4,0-7.3,3.3-7.3,7.3S-9957.2-13037.7-9953.2-13037.7z"/>
	<path class="st0" d="M-10124.8-13186.4c-3.6,0-6.9-1.7-9.1-4.5c-2-2.7-5.1-4.2-8.4-4.2l0,0c-3.3,0-6.4,1.5-8.4,4.2
		c-2.2,2.9-5.5,4.5-9.1,4.5c-3.6,0-6.9-1.7-9.1-4.5c-2-2.6-5.1-4.2-8.4-4.2l0,0c-3.3,0-6.4,1.5-8.4,4.2c-2.2,2.9-5.5,4.5-9.1,4.5
		c-4,0-7.3,3.3-7.3,7.3s3.3,7.3,7.3,7.3c6.6,0,12.8-2.4,17.5-6.8c4.8,4.3,10.9,6.8,17.5,6.8c6.6,0,12.8-2.4,17.5-6.8
		c4.7,4.3,10.9,6.8,17.5,6.8c4,0,7.3-3.3,7.3-7.3S-10120.8-13186.4-10124.8-13186.4z"/>
	<path class="st0" d="M-10029.9-13142.9c-2.2,2.9-5.5,4.5-9.1,4.5c-3.6,0-6.9-1.7-9.1-4.5c-2-2.7-5.1-4.2-8.4-4.2s-6.4,1.5-8.4,4.2
		c-2.2,2.9-5.5,4.5-9.1,4.5c-4,0-7.3,3.3-7.3,7.3s3.3,7.3,7.3,7.3c6.6,0,12.8-2.4,17.5-6.8c4.8,4.3,10.9,6.8,17.5,6.8
		c6.6,0,12.8-2.4,17.5-6.8c4.8,4.3,10.9,6.8,17.5,6.8c4,0,7.3-3.3,7.3-7.3s-3.3-7.3-7.3-7.3c-3.6,0-6.9-1.7-9.1-4.5
		c-2-2.7-5.1-4.2-8.4-4.2S-10027.9-13145.5-10029.9-13142.9z"/>
	<path class="st0" d="M-9953.2-13075.7c6.6,0,12.8-2.4,17.5-6.8c4.8,4.3,10.9,6.8,17.5,6.8c6.6,0,12.8-2.4,17.5-6.8
		c4.8,4.3,10.9,6.8,17.5,6.8c4,0,7.3-3.3,7.3-7.3s-3.3-7.3-7.3-7.3c-3.6,0-6.9-1.7-9.1-4.5c-2-2.7-5.1-4.2-8.4-4.2s-6.4,1.5-8.4,4.2
		c-2.2,2.9-5.5,4.5-9.1,4.5c-3.6,0-6.9-1.7-9.1-4.5c-2-2.7-5.1-4.2-8.4-4.2l0,0c-3.3,0-6.4,1.5-8.4,4.2c-2.2,2.9-5.5,4.5-9.1,4.5
		c-4,0-7.3,3.3-7.3,7.3C-9960.5-13078.9-9957.2-13075.7-9953.2-13075.7z"/>
	<path class="st0" d="M-9729.8-13257.7c0-0.1,0-0.2,0-0.3c-0.6-3.5-2.2-6.7-4.6-9.2c-1.8-1.9-4.1-3.4-6.7-4.3l-114.2-41
		c-0.1,0-0.2-0.1-0.3-0.1s-0.3-0.1-0.4-0.1c-0.1,0-0.3-0.1-0.4-0.1c-0.1,0-0.3-0.1-0.4-0.1c-0.2,0-0.3,0-0.5,0c-0.1,0-0.3,0-0.4,0
		c-0.2,0-0.3,0-0.5,0c-0.1,0-0.3,0-0.4,0c-0.2,0-0.3,0-0.5,0.1c-0.1,0-0.3,0-0.4,0.1c-0.2,0-0.3,0.1-0.5,0.1c-0.1,0-0.2,0.1-0.3,0.1
		l-118.4,42.5l-42.1-15.1c2.9-6,5.2-12.3,6.6-18.9c0.9-3.9-1.6-7.8-5.5-8.7c-3.9-0.9-7.8,1.6-8.7,5.5c-2.7,12.3-8.6,23.1-16.5,32.1
		l-49.5,56.4c-2.6,3-7.4,3.1-10.1,0c-0.9-1-48.3-55-49.7-56.6c-41-47-7.6-120.4,54.7-120.4c40.2,0,65.1,29.8,71.1,57.6
		c0.9,3.9,4.8,6.4,8.7,5.6c3.9-0.9,6.4-4.7,5.6-8.7c-8.9-40.7-44-69.1-85.4-69.1c-66,0-106.1,69.1-78.7,125.1l-38,13.6
		c-6.9,2.5-11.5,9-11.5,16.4v279.2c0,12,11.9,20.4,23.2,16.4l104.9-37.6l118.4,42.5c1.6,0.6,3.4,0.5,4.9,0l47-16.9
		c3.8-1.4,5.8-5.5,4.4-9.3c-1.4-3.8-5.5-5.8-9.3-4.4l-37.3,13.4v-285.1l63-22.6c-0.1,6.4-1.8,12.3-7.2,14.2
		c-14.2,5.1-23.2,17.2-21.9,29.5c1,9.5,8,16.3,18.3,17.7c8.4,1.1,14.4,3.6,16.1,6.6c1.6,2.8-0.6,7-1.9,9.9
		c-3.6,8-9.5,21.4-10.2,35.2c-1.4,28.5,22,46,50.2,44.3v112.3l-36.9,13.2c-3.8,1.4-5.8,5.5-4.4,9.3c1.4,3.8,5.5,5.8,9.3,4.4
		l39.3-14.1l82.4,29.5l22.5,8.1c11.3,4.1,23.2-4.4,23.2-16.4v-279.2C-9729.6-13256-9729.7-13256.9-9729.8-13257.7z
		 M-10106.7-13010.1l-102.5,36.8c-1.8,0.7-3.7-0.7-3.7-2.6v-279.2c0-1.2,0.7-2.2,1.8-2.6l40.7-14.6c1.5,2.1,3.7,4.8,5.5,6.9
		l49.5,56.4l0,0c2.4,2.7,5.5,4.8,8.7,6V-13010.1L-10106.7-13010.1z M-9985.9-12972l-106.3-38.1v-193c3.4-1.2,6.4-3.4,8.7-6
		l49.5-56.4c1.7-1.9,3.8-4.5,5.5-6.9l42.5,15.2L-9985.9-12972L-9985.9-12972z M-9865-13137c-7.9,0.6-14.3-0.4-20-3.2
		c-21.4-10.4-18.2-29.8-6.6-55.7c1.8-4.1,6.6-13.6,1.3-23c-4.1-7.3-13.2-12-26.8-13.9c-3.5-0.5-5.4-2.1-5.7-4.8
		c-0.5-4.7,3.6-11.1,12.3-14.2c7.2-2.6,18.3-10.3,16.7-33.1l28.9-10.4L-9865-13137L-9865-13137z M-9775.3-12983.2l-75.1-26.9v-114.4
		c23-5.2,47.5-17.9,54.4-9.9c5.1,5.8,7.4,11.4,7,16.7c-0.4,5.2-3.6,9.6-6.2,11.8c-5.1,4.3-17.4,23-15.7,41.7
		c1,11.9,7.5,21.6,18.7,28.1c13.7,7.9,22.2,18,24,28.6C-9766.8-12999.6-9769.3-12991.4-9775.3-12983.2z M-9744.2-12975.9
		c0,1.9-1.9,3.3-3.7,2.6l-13.2-4.7c8.2-12.8,8.7-24.1,7.4-31.9c-2.5-14.9-13.6-28.7-31.1-38.8c-7-4-10.7-9.4-11.4-16.5
		c-1.3-13,8-27.3,10.5-29.5c11.3-9.5,18.4-29.2,0.8-49.3c-14.4-16.5-40.1-2-65.4,4.5v-155.7l104.4,37.5c1.1,0.4,1.8,1.4,1.8,2.6
		L-9744.2-12975.9L-9744.2-12975.9z"/>
	<path class="st0" d="M-10099.5-13374.6c-28.5,0-51.7,23.2-51.7,51.7s23.2,51.7,51.7,51.7s51.7-23.2,51.7-51.7
		S-10070.9-13374.6-10099.5-13374.6z M-10099.5-13285.8c-20.5,0-37.1-16.6-37.1-37.1s16.6-37.1,37.1-37.1s37.1,16.6,37.1,37.1
		S-10079-13285.8-10099.5-13285.8z"/>
</g>
</svg>
