<?xml version="1.0" encoding="utf-8"?>
<!DOCTYPE svg PUBLIC "-//W3C//DTD SVG 1.1//EN" "http://www.w3.org/Graphics/SVG/1.1/DTD/svg11.dtd">
<svg version="1.1" xmlns="http://www.w3.org/2000/svg" xmlns:xlink="http://www.w3.org/1999/xlink"
	 x="0px" y="0px" viewBox="0 0 595.3 841.9"
	 style="enable-background:new 0 0 595.3 841.9;" xml:space="preserve">
<style type="text/css">
	.st0{fill:#631D07;}
	.st1{font-family:"NodestoCapsCondensedBold";}
	.st2{font-size:70px;}
	.st3{font-family:"Arial-ItalicMT";}
</style>
<g>
	<text transform="matrix(1 0 0 1 125.4869 497.4771)" class="st0 st1 st2">Cartes &amp; Plans</text>
	<text transform="matrix(1 0 0 1 285.9601 441.4771)" class="st0 st3 st2">-</text>
	<text transform="matrix(1 0 0 1 193.8974 394.4771)" class="st0 st1 st2">Annexe A</text>
</g>
<g transform="matrix(0.113721,0,0,0.113721,1163.1,1525.03)">
	<path class="st0" d="M-7756.6-8351.2c-3.6,0-6.9-1.7-9.1-4.5c-2-2.7-5.1-4.2-8.4-4.2l0,0c-3.3,0-6.4,1.5-8.4,4.2
		c-2.2,2.9-5.5,4.5-9.1,4.5s-6.9-1.7-9.1-4.5c-2-2.7-5.1-4.2-8.4-4.2l0,0c-3.3,0-6.4,1.5-8.4,4.2c-2.2,2.9-5.5,4.5-9.1,4.5
		c-4,0-7.3,3.3-7.3,7.3s3.3,7.3,7.3,7.3c6.6,0,12.8-2.4,17.5-6.8c4.8,4.3,10.9,6.8,17.5,6.8s12.8-2.4,17.5-6.8
		c4.8,4.3,10.9,6.8,17.5,6.8c4,0,7.3-3.3,7.3-7.3C-7749.4-8347.9-7752.6-8351.2-7756.6-8351.2z"/>
	<path class="st0" d="M-7635.8-8303.1c-3.6,0-6.9-1.7-9.1-4.5c-2-2.7-5.1-4.2-8.4-4.2s-6.4,1.5-8.4,4.2c-2.2,2.9-5.5,4.5-9.1,4.5
		s-6.9-1.7-9.1-4.5c-2-2.7-5.1-4.2-8.4-4.2s-6.4,1.5-8.4,4.2c-2.2,2.9-5.5,4.5-9.1,4.5c-4,0-7.3,3.3-7.3,7.3s3.3,7.3,7.3,7.3
		c6.6,0,12.8-2.4,17.5-6.8c4.8,4.3,10.9,6.8,17.5,6.8s12.8-2.4,17.5-6.8c4.8,4.3,10.9,6.8,17.5,6.8c4,0,7.3-3.3,7.3-7.3
		S-7631.8-8303.1-7635.8-8303.1z"/>
	<path class="st0" d="M-7585-8240.4c6.6,0,12.8-2.4,17.5-6.8c4.8,4.3,10.9,6.8,17.5,6.8s12.8-2.4,17.5-6.8
		c4.8,4.3,10.9,6.8,17.5,6.8c4,0,7.3-3.3,7.3-7.3s-3.3-7.3-7.3-7.3c-3.6,0-6.9-1.7-9.1-4.5c-2-2.7-5.1-4.2-8.4-4.2s-6.4,1.5-8.4,4.2
		c-2.2,2.9-5.5,4.5-9.1,4.5s-6.9-1.7-9.1-4.5c-2-2.7-5.1-4.2-8.4-4.2l0,0c-3.3,0-6.4,1.5-8.4,4.2c-2.2,2.9-5.5,4.5-9.1,4.5
		c-4,0-7.3,3.3-7.3,7.3S-7589-8240.4-7585-8240.4z"/>
	<path class="st0" d="M-7756.6-8389.1c-3.6,0-6.9-1.7-9.1-4.5c-2-2.7-5.1-4.2-8.4-4.2l0,0c-3.3,0-6.4,1.5-8.4,4.2
		c-2.2,2.9-5.5,4.5-9.1,4.5s-6.9-1.7-9.1-4.5c-2-2.6-5.1-4.2-8.4-4.2l0,0c-3.3,0-6.4,1.5-8.4,4.2c-2.2,2.9-5.5,4.5-9.1,4.5
		c-4,0-7.3,3.3-7.3,7.3s3.3,7.3,7.3,7.3c6.6,0,12.8-2.4,17.5-6.8c4.8,4.3,10.9,6.8,17.5,6.8s12.8-2.4,17.5-6.8
		c4.7,4.3,10.9,6.8,17.5,6.8c4,0,7.3-3.3,7.3-7.3S-7752.6-8389.1-7756.6-8389.1z"/>
	<path class="st0" d="M-7661.7-8345.6c-2.2,2.9-5.5,4.5-9.1,4.5s-6.9-1.7-9.1-4.5c-2-2.7-5.1-4.2-8.4-4.2s-6.4,1.5-8.4,4.2
		c-2.2,2.9-5.5,4.5-9.1,4.5c-4,0-7.3,3.3-7.3,7.3s3.3,7.3,7.3,7.3c6.6,0,12.8-2.4,17.5-6.8c4.8,4.3,10.9,6.8,17.5,6.8
		s12.8-2.4,17.5-6.8c4.8,4.3,10.9,6.8,17.5,6.8c4,0,7.3-3.3,7.3-7.3s-3.3-7.3-7.3-7.3c-3.6,0-6.9-1.7-9.1-4.5
		c-2-2.7-5.1-4.2-8.4-4.2S-7659.7-8348.2-7661.7-8345.6z"/>
	<path class="st0" d="M-7585-8278.4c6.6,0,12.8-2.4,17.5-6.8c4.8,4.3,10.9,6.8,17.5,6.8s12.8-2.4,17.5-6.8
		c4.8,4.3,10.9,6.8,17.5,6.8c4,0,7.3-3.3,7.3-7.3s-3.3-7.3-7.3-7.3c-3.6,0-6.9-1.7-9.1-4.5c-2-2.7-5.1-4.2-8.4-4.2s-6.4,1.5-8.4,4.2
		c-2.2,2.9-5.5,4.5-9.1,4.5s-6.9-1.7-9.1-4.5c-2-2.7-5.1-4.2-8.4-4.2l0,0c-3.3,0-6.4,1.5-8.4,4.2c-2.2,2.9-5.5,4.5-9.1,4.5
		c-4,0-7.3,3.3-7.3,7.3C-7592.3-8281.6-7589-8278.4-7585-8278.4z"/>
	<path class="st0" d="M-7361.6-8460.4c0-0.1,0-0.2,0-0.3c-0.6-3.5-2.2-6.7-4.6-9.2c-1.8-1.9-4.1-3.4-6.7-4.3l-114.2-41
		c-0.1,0-0.2-0.1-0.3-0.1c-0.1,0-0.3-0.1-0.4-0.1s-0.3-0.1-0.4-0.1s-0.3-0.1-0.4-0.1c-0.2,0-0.3,0-0.5,0c-0.1,0-0.3,0-0.4,0
		c-0.2,0-0.3,0-0.5,0c-0.1,0-0.3,0-0.4,0c-0.2,0-0.3,0-0.5,0.1c-0.1,0-0.3,0-0.4,0.1c-0.2,0-0.3,0.1-0.5,0.1c-0.1,0-0.2,0.1-0.3,0.1
		l-118.4,42.5l-42.1-15.1c2.9-6,5.2-12.3,6.6-18.9c0.9-3.9-1.6-7.8-5.5-8.7s-7.8,1.6-8.7,5.5c-2.7,12.3-8.6,23.1-16.5,32.1
		l-49.5,56.4c-2.6,3-7.4,3.1-10.1,0c-0.9-1-48.3-55-49.7-56.6c-41-47-7.6-120.4,54.7-120.4c40.2,0,65.1,29.8,71.1,57.6
		c0.9,3.9,4.8,6.4,8.7,5.6c3.9-0.9,6.4-4.7,5.6-8.7c-8.9-40.7-44-69.1-85.4-69.1c-66,0-106.1,69.1-78.7,125.1l-38,13.6
		c-6.9,2.5-11.5,9-11.5,16.4v279.2c0,12,11.9,20.4,23.2,16.4l104.9-37.6l118.4,42.5c1.6,0.6,3.4,0.5,4.9,0l47-16.9
		c3.8-1.4,5.8-5.5,4.4-9.3s-5.5-5.8-9.3-4.4l-37.3,13.4v-285.1l63-22.6c-0.1,6.4-1.8,12.3-7.2,14.2c-14.2,5.1-23.2,17.2-21.9,29.5
		c1,9.5,8,16.3,18.3,17.7c8.4,1.1,14.4,3.6,16.1,6.6c1.6,2.8-0.6,7-1.9,9.9c-3.6,8-9.5,21.4-10.2,35.2c-1.4,28.5,22,46,50.2,44.3
		v112.3l-36.9,13.2c-3.8,1.4-5.8,5.5-4.4,9.3s5.5,5.8,9.3,4.4l39.3-14.1l82.4,29.5l22.5,8.1c11.3,4.1,23.2-4.4,23.2-16.4v-279.2
		C-7361.4-8458.7-7361.5-8459.6-7361.6-8460.4z M-7738.5-8212.8L-7841-8176c-1.8,0.7-3.7-0.7-3.7-2.6v-279.2c0-1.2,0.7-2.2,1.8-2.6
		l40.7-14.6c1.5,2.1,3.7,4.8,5.5,6.9l49.5,56.4l0,0c2.4,2.7,5.5,4.8,8.7,6V-8212.8L-7738.5-8212.8z M-7617.7-8174.7l-106.3-38.1
		v-193c3.4-1.2,6.4-3.4,8.7-6l49.5-56.4c1.7-1.9,3.8-4.5,5.5-6.9l42.5,15.2L-7617.7-8174.7L-7617.7-8174.7z M-7496.8-8339.7
		c-7.9,0.6-14.3-0.4-20-3.2c-21.4-10.4-18.2-29.8-6.6-55.7c1.8-4.1,6.6-13.6,1.3-23c-4.1-7.3-13.2-12-26.8-13.9
		c-3.5-0.5-5.4-2.1-5.7-4.8c-0.5-4.7,3.6-11.1,12.3-14.2c7.2-2.6,18.3-10.3,16.7-33.1l28.9-10.4L-7496.8-8339.7L-7496.8-8339.7z
		 M-7407.1-8185.9l-75.1-26.9v-114.4c23-5.2,47.5-17.9,54.4-9.9c5.1,5.8,7.4,11.4,7,16.7c-0.4,5.2-3.6,9.6-6.2,11.8
		c-5.1,4.3-17.4,23-15.7,41.7c1,11.9,7.5,21.6,18.7,28.1c13.7,7.9,22.2,18,24,28.6C-7398.6-8202.3-7401.1-8194.1-7407.1-8185.9z
		 M-7376-8178.6c0,1.9-1.9,3.3-3.7,2.6l-13.2-4.7c8.2-12.8,8.7-24.1,7.4-31.9c-2.5-14.9-13.6-28.7-31.1-38.8
		c-7-4-10.7-9.4-11.4-16.5c-1.3-13,8-27.3,10.5-29.5c11.3-9.5,18.4-29.2,0.8-49.3c-14.4-16.5-40.1-2-65.4,4.5v-155.7l104.4,37.5
		c1.1,0.4,1.8,1.4,1.8,2.6L-7376-8178.6L-7376-8178.6z"/>
	<path class="st0" d="M-7731.3-8577.3c-28.5,0-51.7,23.2-51.7,51.7s23.2,51.7,51.7,51.7s51.7-23.2,51.7-51.7
		S-7702.7-8577.3-7731.3-8577.3z M-7731.3-8488.5c-20.5,0-37.1-16.6-37.1-37.1s16.6-37.1,37.1-37.1s37.1,16.6,37.1,37.1
		S-7710.8-8488.5-7731.3-8488.5z"/>
</g>
</svg>
